<svg id="Layer_3" enable-background="new 0 0 64 64" fill="rgba(70, 170, 228)" height="512" viewBox="0 0 64 64" width="512" xmlns="http://www.w3.org/2000/svg"><path d="m5.96 49.366c.43.545.885 1.077 1.354 1.581l1.464-1.363c-.432-.464-.852-.953-1.247-1.456z"/><path d="m8.794 52.41c.511.466 1.048.916 1.595 1.338l1.222-1.584c-.504-.389-.998-.803-1.47-1.232z"/><path d="m27 43c-2.757 0-5 2.243-5 5s2.243 5 5 5 5-2.243 5-5-2.243-5-5-5zm0 8c-1.654 0-3-1.346-3-3s1.346-3 3-3 3 1.346 3 3-1.346 3-3 3z"/><path d="m50 26c0-4.411-3.589-8-8-8s-8 3.589-8 8 3.589 8 8 8 8-3.589 8-8zm-14 0c0-3.309 2.691-6 6-6s6 2.691 6 6-2.691 6-6 6-6-2.691-6-6z"/><path d="m52 1h-30v2h30c4.962 0 9 4.037 9 9v9.719l-1.634-.408c-.402-1.492-.997-2.924-1.772-4.271l1.93-3.216-5.347-5.347-3.216 1.929c-1.346-.775-2.778-1.369-4.271-1.771l-.909-3.635h-7.562l-.908 3.635c-1.493.402-2.925.996-4.271 1.771l-3.216-1.929-5.347 5.347 1.93 3.216c-.776 1.347-1.37 2.778-1.772 4.271l-3.635.908v5.781h-8v2h8.875l2.759.689c.213.786.491 1.56.816 2.322-9.467.117-18.307 4.802-23.704 12.597-.488.706-.746 1.534-.746 2.392s.258 1.686.747 2.392c5.465 7.894 14.461 12.608 24.065 12.608h2.377c9.603 0 18.599-4.714 24.064-12.608.489-.706.747-1.534.747-2.392s-.258-1.686-.747-2.392c-.815-1.178-1.718-2.275-2.681-3.306.479-.22.943-.456 1.386-.709l3.218 1.93 5.347-5.347-1.93-3.216c.776-1.347 1.37-2.778 1.772-4.271l3.635-.908v-5.781-1.781-10.219c0-6.065-4.935-11-11-11zm-22 25c0-6.617 5.383-12 12-12s12 5.383 12 12c0 5.837-4.108 10.726-9.814 11.774-3.505-2.288-7.48-3.813-11.67-4.439-1.619-2.093-2.516-4.679-2.516-7.335zm-3 35c-7.168 0-13-5.832-13-13s5.832-13 13-13 13 5.832 13 13-5.832 13-13 13zm-23.608-11.747c-.257-.37-.392-.803-.392-1.253s.135-.883.392-1.253c3.514-5.076 8.594-8.738 14.346-10.522-3.488 2.749-5.738 7-5.738 11.775s2.25 9.026 5.737 11.775c-5.751-1.784-10.832-5.446-14.345-10.522zm47.608-1.253c0 .45-.135.883-.392 1.253-3.514 5.076-8.594 8.738-14.346 10.522 3.488-2.749 5.738-7 5.738-11.775s-2.25-9.026-5.737-11.775c5.751 1.784 10.832 5.446 14.346 10.522.256.37.391.803.391 1.253zm10-19.781-3.293.823-.139.596c-.395 1.693-1.064 3.307-1.99 4.795l-.323.519 1.749 2.914-3.139 3.14-2.915-1.749-.519.323c-.732.455-1.547.845-2.4 1.191-.555-.512-1.122-1.007-1.712-1.472 5.72-1.83 9.681-7.109 9.681-13.299 0-7.72-6.28-14-14-14s-14 6.28-14 14c0 2.487.673 4.924 1.914 7.053-.573-.034-1.148-.053-1.726-.053h-.542c-.534-1.09-.948-2.217-1.214-3.362l-.139-.596-3.293-.823v-4.438l3.293-.823.139-.596c.395-1.693 1.064-3.307 1.99-4.795l.323-.519-1.749-2.914 3.139-3.14 2.915 1.749.519-.323c1.487-.925 3.101-1.595 4.795-1.989l.595-.139.822-3.292h4.438l.823 3.293.595.139c1.694.395 3.308 1.064 4.795 1.989l.519.323 2.915-1.749 3.139 3.14-1.749 2.914.323.519c.926 1.488 1.595 3.102 1.99 4.795l.139.596 3.292.822v.219z"/><path d="m18 1h2v2h-2z"/><path d="m14 1h2v2h-2z"/><path d="m8 5h2v2h-2z"/><path d="m12 5h2v2h-2z"/><path d="m16 5h18v2h-18z"/><path d="m5 28h2v2h-2z"/><path d="m9 28h2v2h-2z"/><path d="m17 24h2v2h-2z"/><path d="m15 26v-2h-4-6v2h6z"/><path d="m34.498 43.002-.564-.01c-1.783-.03-3.3-1.212-3.773-2.941l-.148-.544-.542-.154c-.821-.234-1.653-.353-2.471-.353-4.962 0-9 4.037-9 9s4.038 9 9 9 9-4.037 9-9c0-1.582-.421-3.142-1.218-4.511zm-7.498 11.998c-3.86 0-7-3.141-7-7s3.14-7 7-7c.469 0 .944.051 1.421.151.796 2.062 2.689 3.536 4.875 3.799.462.949.704 1.993.704 3.05 0 3.859-3.14 7-7 7z"/></svg>